<?xml version="1.0" encoding="UTF-8"?>
<svg id="Layer_1" data-name="Layer 1" xmlns="http://www.w3.org/2000/svg" viewBox="0 0 3300 2200">
  <defs>
    <style>
      .cls-1 {
        font-family: Helvetica-Bold, Helvetica;
        font-weight: 700;
      }

      .cls-1, .cls-2 {
        font-size: 13px;
        isolation: isolate;
      }

      .cls-3 {
        letter-spacing: -.0175781em;
      }

      .cls-4 {
        stroke: #00aeef;
      }

      .cls-4, .cls-5, .cls-6 {
        fill: none;
        stroke-width: .5px;
      }

      .cls-5 {
        stroke: #000;
      }

      .cls-6 {
        stroke: #27aae1;
      }

      .cls-7 {
        letter-spacing: -.0737305em;
      }

      .cls-8 {
        letter-spacing: -.0546875em;
      }

      .cls-9 {
        letter-spacing: -.1108398em;
      }

      .cls-10, .cls-11, .cls-12 {
        stroke-width: 0px;
      }

      .cls-2 {
        font-family: Helvetica, Helvetica;
      }

      .cls-11 {
        fill: #27aae1;
      }

      .cls-12 {
        fill: #fff;
      }
    </style>
  </defs>
  <g id="Notes">
    <rect id="artboard" class="cls-12" width="3300" height="2200"/>
    <line class="cls-5" x1="263" y1="292" x2="3036" y2="292"/>
    <text class="cls-1" transform="translate(263 322)"><tspan class="cls-3" x="0" y="0">W</tspan><tspan x="12.0415039" y="0">eight/Scale </tspan><tspan class="cls-8" x="84.2905273" y="0">V</tspan><tspan x="92.2504883" y="0">ariations</tspan></text>
    <text class="cls-2" transform="translate(534.0632935 322)"><tspan x="0" y="0">Ultralight</tspan></text>
    <text class="cls-2" transform="translate(843.7774658 322)"><tspan x="0" y="0">Thin</tspan></text>
    <text class="cls-2" transform="translate(1139.0350342 322)"><tspan x="0" y="0">Light</tspan></text>
    <text class="cls-2" transform="translate(1427.0772705 322)"><tspan x="0" y="0">Regular</tspan></text>
    <text class="cls-2" transform="translate(1723.4418945 322)"><tspan x="0" y="0">Medium</tspan></text>
    <text class="cls-2" transform="translate(2016.171875 322)"><tspan x="0" y="0">Semibold</tspan></text>
    <text class="cls-2" transform="translate(2326.970459 322)"><tspan x="0" y="0">Bold</tspan></text>
    <text class="cls-2" transform="translate(2618.2658691 322)"><tspan x="0" y="0">Heavy</tspan></text>
    <text class="cls-2" transform="translate(2917.5053711 322)"><tspan x="0" y="0">Black</tspan></text>
    <line class="cls-5" x1="263" y1="1903" x2="3036" y2="1903"/>
    <path class="cls-10" d="m272.2480401,1933.830078c4.3066399,0,7.8906198-3.5742199,7.8906198-7.8808602s-3.5937592-7.8808603-7.9003999-7.8808603c-4.29688,0-7.8711,3.5742203-7.8711,7.8808603s3.5839802,7.8808603,7.8808603,7.8808603h.0000198Zm0-1.484376c-3.54492,0-6.3769601-2.8418001-6.3769601-6.3964804s2.8222603-6.3964799,6.36718-6.3964799c3.5546799,0,6.4062409,2.8418,6.4062409,6.3964799s-2.8418,6.3964803-6.3964799,6.3964803h.0000191Zm-3.59376-6.3964804c0,.4296883.302734.7226559.7519539.7226559h2.0996003v2.1191403c0,.4394539.292968.7421879.7226563.7421879.449218,0,.7421883-.302734.7421883-.7421879v-2.1191399h2.1191399c.4394539,0,.7421883-.292968.7421883-.7226563,0-.4394539-.3027344-.7421883-.7421883-.7421883h-2.1191399v-2.1093804c0-.449218-.292968-.7519539-.7421883-.7519539-.4296883,0-.7226563.3027336-.7226563.7519539v2.1093796h-2.0996003c-.449218,0-.7519539.3027344-.7519539.742189Z"/>
    <path class="cls-10" d="m293.2149919,1935.9101601c5.4492204,0,9.9609392-4.5214802,9.9609392-9.9609399,0-5.4492204-4.5214799-9.9609392-9.9707002-9.9609392-5.4394601,0-9.9511804,4.5117203-9.9511804,9.9609399,0,5.4394601,4.5214802,9.9609399,9.9609415,9.9609392Zm0-1.6601561c-4.6093796,0-8.2910203-3.6914002-8.2910203-8.30078s3.6718796-8.3007806,8.2812402-8.3007806,8.3105401,3.6914002,8.3105401,8.3007798-3.6914002,8.3007798-8.3007798,8.3007798l.0000198.000001Zm-4.5312401-8.30078c0,.4785164.332032.800782.8300781.800782h2.8710999v2.8808602c0,.488282.332032.8300781.8105461.8300781.488282,0,.8300781-.332032.8300781-.8300781v-2.8808602h2.8808594c.4882828,0,.8300781-.3222656.8300781-.800782,0-.488282-.3417954-.8300781-.8300781-.8300781h-2.8808602v-2.8710999c0-.4980461-.3417961-.8398438-.8300781-.8398438-.4785164,0-.8105461.3417961-.8105461.8398438v2.8710999h-2.8710999c-.4980461,0-.8300781.3417961-.8300774.8300781Z"/>
    <path class="cls-10" d="m319.8947115,1938.6640599c6.9628999,0,12.7246004-5.76172,12.7246004-12.7148397,0-6.9628999-5.7714799-12.7246004-12.7343813-12.7246004-6.9531198,0-12.7050798,5.7617204-12.7050798,12.7246004,0,6.9531198,5.7617204,12.7148401,12.7148394,12.7148401l.0000214-.0000004Zm0-1.8164059c-6.0351602,0-10.8886804-4.8632802-10.8886804-10.89844,0-6.0449204,4.84376-10.8984392,10.8788995-10.8984392,6.0449204,0,10.9082002,4.8535203,10.9082002,10.89844,0,6.0351602-4.8535203,10.89844-10.8984407,10.89844l.0000214-.0000008Zm-5.7714799-10.89844c0,.5175781.3710938.8789059.917968.8789059h3.945321v3.9550801c0,.53711.3710938.917968.8886719.917968.5371094,0,.9082047-.3710939.9082047-.917968v-3.9550801h3.9550797c.5371094,0,.9179688-.3613277.9179688-.8789059,0-.5468758-.3710938-.917968-.9179688-.917968h-3.9550797v-3.9453202c0-.5468758-.3710938-.9277336-.9082047-.9277336-.5175781,0-.8886719.3808601-.8886719.9277344v3.9453202h-3.9453202c-.5468758,0-.917968.3710938-.9179688.9179672Z"/>
    <text class="cls-1" transform="translate(263 1953)"><tspan x="0" y="0">Design </tspan><tspan class="cls-8" x="46.9536133" y="0">V</tspan><tspan x="54.9135742" y="0">ariations</tspan></text>
    <text class="cls-2" transform="translate(263 1971)"><tspan x="0" y="0">Symbols are supported in up to nine weights and three scales.</tspan></text>
    <text class="cls-2" transform="translate(263 1989)"><tspan x="0" y="0">For optimal layout with text and other symbols, vertically align</tspan></text>
    <text class="cls-2" transform="translate(263 2007)"><tspan x="0" y="0">symbols with the adjacent text.</tspan></text>
    <line class="cls-4" x1="776" y1="1919" x2="776" y2="1933"/>
    <path class="cls-10" d="m779.3105401,1933.15625c.5175781,0,.771484-.1953124.957032-.742188l1.259766-3.4472599h5.76172l1.2597656,3.44726c.1855469.546876.4394547.742188.9472656.742188.5175781,0,.8496094-.3125.8496094-.800782,0-.1660156-.0292969-.322266-.1074219-.527344l-4.5800797-12.1972603c-.2246101-.5957047-.625-.8984375-1.25-.8984375-.605468,0-1.0156243.2929688-1.230468.8886719l-4.5800801,12.2168001c-.078125.205078-.1074219.361328-.1074219.527344,0,.488282.3125.791016.8203129.7910078Zm2.6953202-5.6738202l2.37304-6.57226h.0488281l2.37304,6.5722604-4.7949082-.0000004Z"/>
    <line class="cls-4" x1="792.8359985" y1="1919" x2="792.8359985" y2="1933"/>
    <text class="cls-1" transform="translate(776 1953)"><tspan x="0" y="0">Margins</tspan></text>
    <text class="cls-2" transform="translate(776 1971)"><tspan x="0" y="0">Leading and trailing margins on the left and right side of each symbol</tspan></text>
    <text class="cls-2" transform="translate(776 1989)"><tspan x="0" y="0">can be adjusted by modifying the x-location of the margin guidelines.</tspan></text>
    <text class="cls-2" transform="translate(776 2007)"><tspan x="0" y="0">Modifications are automatically applied proportionally to all</tspan></text>
    <text class="cls-2" transform="translate(776 2025)"><tspan x="0" y="0">scales and weights.</tspan></text>
    <path class="cls-10" d="m1291.8418,1934.865234l1.699218,1.708984c.8593758.8691399,1.8457039.8105461,2.7734398-.2148441l10.6933611-11.7871008-.9667954-.9765618-10.6152399,11.67968c-.3515621.4003901-.6835941.4980461-1.1523441.0292969l-1.1718762-1.1621101c-.46875-.458984-.3613281-.800782.0390625-1.1621101l11.4745996-10.8007801-.9765625-.9667961-11.5918001,10.8886804c-.9863281.917968-1.0644539,1.894532-.2050779,2.7636801l.0000151-.0000185Zm6.4160203-18.1933593c-.4199219.4101563-.449218.9863281-.2148438,1.3769547.2343758.3613281.6933601.5957047,1.3378899.4296875,1.4648438-.3417954,2.9882805-.4003906,4.4140603.5371094l-.5859375,1.4550781c-.3417954.8300781-.1660156,1.4160156.3710938,1.9628899l2.2949204,2.31446c.4882813.488282.8984375.5078117,1.4648438.4101563l1.0644547-.1953125.6640625.6738281-.0390625.5566399c-.0390625.4980461.0878906.8789059.5761719,1.3574219l.7617172.7421879c.4785156.478516,1.09375.5078121,1.5625.0390625l2.9101593-2.91992c.46875-.46875.4492188-1.0644539-.0292969-1.542968l-.7714844-.761718c-.4785156-.4785156-.8496094-.6347656-1.3281235-.5957039l-.5761719.0488281-.6445328-.6347664.2441406-1.1230461c.1269531-.5664063-.0292969-1.0058602-.6152344-1.5917961l-2.1972596-2.1875c-3.3398407-3.3203202-7.7734399-3.2421799-10.6640604-.3515625l-.0000069-.0000107Zm1.4941399.3710938c2.4316399-1.7773438,5.7226601-1.4746094,7.9492212.7519547l2.4316407,2.4121003c.2343765.2343758.2734375.4199219.2050781.761718l-.3222656,1.4843758,1.5039063,1.4843758.9863281-.0585938c.2539063-.0097656.3320313.0097656.5273438.2050781l.5761719.5761719-2.4414002,2.4414002-.5761719-.5761719c-.1953125-.1953125-.2246094-.2734383-.2148438-.5371101l.0683594-.9765618-1.4941406-1.4843758-1.5234375.2539063c-.3222656.0683594-.46875.0390625-.7128906-.1953125l-2.0019593-2.00196c-.2539063-.2343758-.2832047-.4003899-.1269531-.7714836l.8789063-2.0898392c-1.5625-1.4550781-3.5937592-2.0800797-5.6250001-1.4843765-.15625.0390625-.2148438-.0878906-.0878906-.1953125l-.0000023.0000168Z"/>
    <text class="cls-1" transform="translate(1289 1953)"><tspan x="0" y="0">Exporting</tspan></text>
    <text class="cls-2" transform="translate(1289 1971)"><tspan x="0" y="0">Symbols should be outlined when exporting to ensure the</tspan></text>
    <text class="cls-2" transform="translate(1289 1989)"><tspan x="0" y="0">design is preserved when submitting to Xcode.</tspan></text>
    <text id="template-version" class="cls-2" transform="translate(2952.4140625 1933)"><tspan class="cls-9" x="0" y="0">T</tspan><tspan x="6.5" y="0">emplate </tspan><tspan class="cls-7" x="56.3608398" y="0">v</tspan><tspan x="61.9023438" y="0">.5.0</tspan></text>
    <text class="cls-2" transform="translate(2865.4575195 1951)"><tspan x="0" y="0">Requires Xcode 15 or greater</tspan></text>
    <text id="descriptive-name" class="cls-2" transform="translate(2838.7338867 1969)"><tspan x="0" y="0">Generated from doc.questionmark</tspan></text>
    <text class="cls-2" transform="translate(2901.5693359 1987)"><tspan class="cls-8" x="0" y="0">T</tspan><tspan x="7.2299805" y="0">ypeset at 100.0 points</tspan></text>
    <text class="cls-2" transform="translate(263 726)"><tspan x="0" y="0">Small</tspan></text>
    <text class="cls-2" transform="translate(263 1156)"><tspan x="0" y="0">Medium</tspan></text>
    <text class="cls-2" transform="translate(263 1586)"><tspan x="0" y="0">Large</tspan></text>
  </g>
  <g id="Guides">
    <g id="H-reference">
      <path class="cls-11" d="m339.993654,696h2.6440959l25.6903503-67.1323013h.7021999v-3.3266983h-1.9076996l-27.1289465,70.4589996Zm10.6948464-24.4799004h35.2929983l-.75-2.2486h-33.7929983l-.75,2.2486Zm43.431098,24.4799004h2.6441002l-27.1254978-70.4589996h-1.2056007v3.3266983l25.6869984,67.1323013Z"/>
    </g>
    <line id="Baseline-S" class="cls-6" x1="263" y1="696" x2="3036" y2="696"/>
    <line id="Capline-S" class="cls-6" x1="263" y1="625.5410156" x2="3036" y2="625.5410156"/>
    <g id="H-reference-2" data-name="H-reference">
      <path class="cls-11" d="m339.993654,1126h2.6440959l25.6903503-67.1323013h.7021999v-3.3266983h-1.9076996l-27.1289465,70.4589996Zm10.6948464-24.4799004h35.2929983l-.75-2.2486h-33.7929983l-.75,2.2486Zm43.431098,24.4799004h2.6441002l-27.1254978-70.4589996h-1.2056007v3.3266983l25.6869984,67.1323013Z"/>
    </g>
    <line id="Baseline-M" class="cls-6" x1="263" y1="1126" x2="3036" y2="1126"/>
    <line id="Capline-M" class="cls-6" x1="263" y1="1055.5400391" x2="3036" y2="1055.5400391"/>
    <g id="H-reference-3" data-name="H-reference">
      <path class="cls-11" d="m339.993654,1556h2.6440959l25.6903503-67.1323013h.7021999v-3.3266983h-1.9076996l-27.1289465,70.4589996Zm10.6948464-24.4799004h35.2929983l-.75-2.2486h-33.7929983l-.75,2.2486Zm43.431098,24.4799004h2.6441002l-27.1254978-70.4589996h-1.2056007v3.3266983l25.6869984,67.1323013Z"/>
    </g>
    <line id="Baseline-L" class="cls-6" x1="263" y1="1556" x2="3036" y2="1556"/>
    <line id="Capline-L" class="cls-6" x1="263" y1="1485.5400391" x2="3036" y2="1485.5400391"/>
    <line id="left-margin-Ultralight-S" class="cls-4" x1="519.2880249" y1="600.7849731" x2="519.2880249" y2="720.1209717"/>
    <line id="right-margin-Ultralight-S" class="cls-4" x1="600.1339722" y1="600.7849731" x2="600.1339722" y2="720.1209717"/>
    <line id="left-margin-Regular-S" class="cls-4" x1="1407.5600586" y1="600.7849731" x2="1407.5600586" y2="720.1209717"/>
    <line id="right-margin-Regular-S" class="cls-4" x1="1492.1300049" y1="600.7849731" x2="1492.1300049" y2="720.1209717"/>
    <line id="left-margin-Black-S" class="cls-4" x1="2887.6999512" y1="600.7849731" x2="2887.6999512" y2="720.1209717"/>
    <line id="right-margin-Black-S" class="cls-4" x1="2979.1000977" y1="600.7849731" x2="2979.1000977" y2="720.1209717"/>
  </g>
  <g id="Symbols">
    <g id="Black-S">
      <path class="cls-10" d="m2915.0120513,710.3048384l-3.8357404,18.9620719c-.9084721,4.4506055-4.8239664,7.6469256-9.3663452,7.646002-.6420544.0023698-1.2826321-.0616886-1.9115005-.1911543-5.1720674-1.0544538-8.510055-6.1020382-7.4556073-11.2741056.0002552-.0012396.0005074-.0024914.0007626-.003731l3.822998-18.9493234c.9734177-5.1879271,5.968173-8.6044593,11.1561001-7.6310538,5.1879271.9734177,8.6044654,5.968173,7.6310478,11.1561001-.0186913.0996423-.0389685.1989687-.0608257.2979547l.0191106-.0127606Zm25.0279002-94.4535478c8.7974305,0,15.9291607-7.1317287,15.9291607-15.9291607s-7.1317302-15.9291607-15.9291607-15.9291607-15.9291607,7.1317279-15.9291607,15.9291607,7.1317302,15.9291607,15.9291607,15.9291607Zm60.5308108,28.6724893v82.8316359c0,5.2784547-4.2790418,9.5574964-9.5574964,9.5574964s-9.5574964-4.2790418-9.5574964-9.5574964v-60.5308108h-16.5153478c-6.5643377.006119-12.7967713-2.8850944-17.0314608-7.9008623l-6.6775063-7.9008623-7.5631673,30.4565536,7.4612159,5.9192755c5.3499568,4.2078496,8.4716515,10.6391486,8.4679449,17.4456102v22.511096c0,5.2784547-4.2790357,9.5574964-9.5574964,9.5574964s-9.5574964-4.2790418-9.5574964-9.5574964v-22.511096c.000954-.9727492-.4425631-1.8926451-1.2042454-2.4976937l-17.1588909-13.6034926c-1.6479934-1.3064338-3.1043373-2.8378436-4.3263594-4.5493667-2.984281,1.1667048-6.1621377,1.7590413-9.3663482,1.745831-13.5231568.4442159-24.8459503-10.1583583-25.290167-23.6815196-.0179469-.5463496-.0176021-1.0931489.0010322-1.6394742,0-20.8162285,21.6636592-38.3956492,47.2331481-38.3956492h11.6665194c7.4283238.4408192,14.25739,4.2219896,18.5734012,10.2838652l11.8959009,14.0750071c.605802.7158351,1.4962026,1.1284047,2.4339756,1.1277849h16.5153478v-3.1858321c0-5.2784607,4.2790418-9.5574964,9.5574964-9.5574964s9.5574964,4.2790357,9.5574964,9.5574964Zm-102.1441512,22.300825c2.7504818-.216712,5.2362838-1.7218957,6.7029911-4.0587507l4.9635283-19.9241933c-10.1500639,3.0074263-17.8406612,10.1373154-17.8406612,17.7769431-.4255246,2.9998064,1.6613435,5.7765812,4.6611499,6.2021058.5017299.071174,1.0109035.0724804,1.512992.003895Z"/>
    </g>
    <g id="Regular-S">
      <path class="cls-10" d="m1431.7977804,698.0033339l-2.9522514,14.5945235c-.699223,3.4254941-3.7128586,5.8856035-7.2089878,5.8848926-.4941695.001824-.9872025-.0474798-1.4712231-.1471256-3.9807812-.8115806-6.5499276-4.6965511-5.7383516-8.6773323.0001964-.0009541.0003905-.0019175.0005869-.0028716l2.942444-14.5847114c.7492096-3.9929879,4.5935192-6.6225877,8.5865071-5.8733874,3.9929879.7492096,6.6225924,4.5935192,5.8733828,8.5865071-.0143861.0766916-.0299929.1531401-.0468157.2293266l.0147088-.0098215Zm19.263205-72.6979905c6.7711117,0,12.2601851-5.4890722,12.2601851-12.2601851s-5.4890734-12.2601851-12.2601851-12.2601851-12.2601851,5.4890716-12.2601851,12.2601851,5.4890734,12.2601851,12.2601851,12.2601851Zm46.5887033,22.0683331v63.7529624c0,4.0626642-3.2934468,7.356111-7.356111,7.356111s-7.356111-3.2934468-7.356111-7.356111v-46.5887033h-12.7113553c-5.0523688.0047096-9.8492813-2.2205684-13.1085915-6.0810507l-5.1394712-6.0810507-5.8211372,23.4414726,5.7426684,4.5558843c4.1176972,3.2386524,6.5203696,8.1886254,6.5175167,13.4273496v17.3260982c0,4.0626642-3.2934422,7.356111-7.356111,7.356111s-7.356111-3.2934468-7.356111-7.356111v-17.3260982c.0007343-.7486952-.3406272-1.4567108-.9268706-1.922398l-13.2066706-10.4701898c-1.2684098-1.0055219-2.3893129-2.1842009-3.3298658-3.5015076-2.2969093.8979768-4.7428079,1.35388-7.2089901,1.3437124-10.4083578.3418993-19.1231637-7.8185759-19.4650637-18.2269373-.0138132-.4205085-.0135478-.8413631.0007945-1.2618528,0-16.0216108,16.6738522-29.5519502,36.3539013-29.5519502h8.9793612c5.7173524.3392849,10.9734746,3.2495355,14.2953756,7.9151747l9.1559091,10.8331001c.4662672.5509563,1.1515811.8684984,1.8733561.8680213h12.7113553v-2.452037c0-4.0626689,3.2934468-7.356111,7.356111-7.356111s7.356111,3.2934422,7.356111,7.356111Zm-78.6172115,17.1642591c2.1169613-.1667966,4.0302066-1.3252902,5.1590861-3.1238956l3.8202751-15.3350388c-7.812192,2.3147235-13.7314082,7.8023798-13.7314082,13.6823664-.3275132,2.3088587,1.278685,4.4460569,3.5875437,4.7735701.3861661.0547804.7780614.0557859,1.1645034.0029979Z"/>
    </g>
    <g id="Ultralight-S">
      <path class="cls-10" d="m546.0392261,691.5810704l-2.3950819,11.8401432c-.5672608,2.779011-3.012142,4.7748313-5.8484573,4.7742546-.4009064.0014798-.8008908-.0385191-1.1935636-.119359-3.2295004-.6584135-5.3137795-3.8101852-4.6553699-7.0396856.0001594-.000774.0003168-.0015556.0004762-.0023297l2.3871254-11.8321829c.6078136-3.2394034,3.7265982-5.3727268,6.9660016-4.7649208,3.2394034.6078136,5.3727305,3.7265982,4.764917,6.9660016-.0116711.0622179-.0243324.1242384-.0379803.1860465l.0119329-.0079679Zm15.6277186-58.9779186c5.4932202,0,9.9463574-4.4531362,9.9463574-9.9463574s-4.4531372-9.9463574-9.9463574-9.9463574-9.9463574,4.4531357-9.9463574,9.9463574,4.4531372,9.9463574,9.9463574,9.9463574Zm37.7961582,17.9034433v51.7210586c0,3.2959299-2.6718846,5.9678144-5.9678144,5.9678144s-5.9678144-2.6718846-5.9678144-5.9678144v-37.7961582h-10.3123796c-4.0988505.0038208-7.9904562-1.8014872-10.6346467-4.9333924l-4.1695144-4.9333924-4.7225316,19.0174343,4.6588719,3.696066c3.3405766,2.6274313,5.2898,6.6432109,5.2874855,10.8932465v14.0561961c0,3.2959299-2.6718808,5.9678144-5.9678144,5.9678144s-5.9678144-2.6718846-5.9678144-5.9678144v-14.0561961c.0005957-.6073962-.2763417-1.1817901-.7519451-1.5595896l-10.7142156-8.4941826c-1.0290267-.8157528-1.9383851-1.7719833-2.7014303-2.8406787-1.8634205.7285044-3.8477121,1.0983663-5.8484592,1.0901176-8.4440199.2773737-15.5141069-6.3429997-15.791481-14.7870225-.0112063-.3411472-.0109909-.6825752.0006445-1.0237072,0-12.9979007,13.5270465-23.9747,29.4929394-23.9747h7.2847135c4.6383337.2752527,8.9024839,2.6362605,11.5974526,6.4213677l7.427942,8.7886019c.37827.446976.9342467.7045893,1.5198033.7042023h10.3123796v-1.9892715c0-3.2959337,2.6718846-5.9678144,5.9678144-5.9678144s5.9678144,2.6718808,5.9678144,5.9678144Zm-63.7800228,13.9249004c1.7174336-.1353176,3.2695979-1.0751722,4.1854274-2.5343322l3.0992861-12.4409033c-6.3378206,1.8778728-11.1399211,6.3298603-11.1399211,11.1001347-.2657026,1.8731148,1.0373626,3.606966,2.9104774,3.8726687.3132861.0444419.6312202.0452576.9447302.0024321Z"/>
    </g>
  </g>
</svg>